<svg xmlns="http://www.w3.org/2000/svg" viewBox="0 0 181 256" fill="currentColor">
  <g transform="translate(0,256) scale(0.1,-0.1)">
    <path d="M370 2369 c-36 -14 -88 -67 -111 -112 -45 -86 -60 -181 -57 -349 l2
-158 -55 -57 c-95 -98 -136 -191 -146 -328 -7 -94 12 -180 57 -263 l29 -54
-19 -37 c-33 -66 -53 -162 -54 -261 -1 -108 14 -180 55 -261 l28 -56 -25 -60
c-41 -103 -53 -250 -28 -350 6 -21 12 -23 75 -23 78 0 77 -2 59 89 -15 78 3
181 46 269 38 79 38 95 -1 147 -88 117 -92 314 -9 479 43 85 44 74 -18 163
-15 21 -35 69 -45 107 -14 59 -15 79 -5 139 32 186 168 310 341 311 l74 1 36
60 c93 153 285 215 444 142 68 -31 142 -97 169 -152 11 -22 25 -43 31 -46 5
-4 42 -6 82 -6 60 0 83 -5 128 -27 123 -60 199 -180 205 -323 5 -97 -12 -157
-63 -229 -19 -27 -35 -55 -35 -61 0 -7 16 -45 36 -83 81 -159 76 -360 -11
-475 -39 -52 -39 -68 -1 -147 43 -88 61 -191 46 -269 -18 -91 -19 -89 59 -89
63 0 69 2 75 23 25 100 13 247 -28 350 l-25 60 28 56 c41 81 56 153 55 261 -1
100 -21 195 -55 263 l-20 38 21 36 c63 108 80 277 39 409 -27 89 -49 126 -118
197 l-55 57 2 158 c3 131 0 170 -17 234 -26 99 -50 146 -100 191 -125 113
-270 2 -318 -242 l-16 -78 -71 30 c-126 53 -277 48 -397 -13 l-36 -19 -16 79
c-40 207 -153 324 -267 279z m87 -185 c12 -21 29 -68 37 -104 16 -69 23 -200
13 -217 -4 -6 -28 -14 -54 -17 -27 -4 -62 -9 -79 -12 l-31 -6 -6 54 c-13 136
42 360 86 345 7 -2 22 -21 34 -43z m965 10 c30 -52 50 -154 51 -256 0 -54 -2
-101 -5 -103 -10 -10 -153 16 -163 30 -14 17 -2 175 18 245 20 67 53 123 70
117 6 -2 20 -17 29 -33z M785 1367 c-158 -53 -245 -155 -245 -291 0 -105 54
-186 158 -238 43 -21 60 -23 207 -23 147 0 164 2 207 23 104 52 158 133 158
238 0 119 -64 209 -188 267 -58 27 -80 32 -162 34 -59 2 -110 -2 -135 -10z
m239 -103 c98 -34 168 -134 152 -219 -10 -52 -71 -110 -137 -129 -67 -20 -201
-20 -268 0 -102 30 -158 117 -132 205 40 133 218 200 385 143z M832 1158 c-18
-18 -15 -43 8 -63 12 -11 20 -31 20 -50 0 -37 15 -55 47 -55 26 0 44 28 37 57
-4 14 3 29 20 46 30 30 31 36 12 63 -12 16 -18 17 -44 8 -17 -7 -36 -8 -43 -3
-20 12 -43 11 -57 -3z M403 1350 c-21 -12 -36 -32 -43 -57 -15 -51 0 -88 44
-110 30 -14 39 -14 66 -3 55 23 85 93 60 141 -11 20 -60 49 -82 49 -7 0 -27
-9 -45 -20z M1318 1354 c-51 -27 -62 -77 -29 -130 10 -17 33 -37 51 -44 27
-11 36 -11 66 3 44 22 59 59 44 110 -7 25 -22 45 -43 57 -38 24 -53 24 -89 4z"/>
  </g>
</svg>
